<svg width="29" height="29" viewBox="0 0 29 29" fill="none" xmlns="http://www.w3.org/2000/svg">
<path d="M14.5005 2.41675C12.2572 2.41675 10.1058 3.30789 8.51953 4.89414C6.93329 6.48038 6.04214 8.63179 6.04214 10.8751V15.1381C6.04232 15.3255 5.99888 15.5104 5.91527 15.6782L3.84056 19.8264C3.73921 20.0291 3.69136 20.2543 3.70154 20.4806C3.71172 20.707 3.7796 20.927 3.89873 21.1197C4.01787 21.3125 4.1843 21.4716 4.38221 21.5819C4.58013 21.6922 4.80297 21.7501 5.02956 21.7501H23.9714C24.198 21.7501 24.4208 21.6922 24.6187 21.5819C24.8167 21.4716 24.9831 21.3125 25.1022 21.1197C25.2213 20.927 25.2892 20.707 25.2994 20.4806C25.3096 20.2543 25.2617 20.0291 25.1604 19.8264L23.0869 15.6782C23.0029 15.5105 22.959 15.3256 22.9588 15.1381V10.8751C22.9588 8.63179 22.0677 6.48038 20.4814 4.89414C18.8952 3.30789 16.7438 2.41675 14.5005 2.41675ZM14.5005 25.3751C13.7505 25.3755 13.0189 25.1433 12.4065 24.7104C11.794 24.2776 11.3309 23.6655 11.0809 22.9584H17.9201C17.6701 23.6655 17.2069 24.2776 16.5945 24.7104C15.982 25.1433 15.2504 25.3755 14.5005 25.3751Z" fill="white"/>
</svg>
