<svg width="45" height="27" viewBox="0 0 45 27" fill="none" xmlns="http://www.w3.org/2000/svg">
<path d="M38.0549 11.0204L23.9924 19.4579C23.7964 19.5759 23.5636 19.6695 23.3072 19.7334C23.0508 19.7973 22.7759 19.8301 22.4982 19.8301C22.2206 19.8301 21.9457 19.7973 21.6893 19.7334C21.4329 19.6695 21.2001 19.5759 21.0041 19.4579L6.9416 11.0204C6.54533 10.7826 6.32271 10.4602 6.32271 10.1239C6.32271 9.78767 6.54533 9.46519 6.9416 9.22743C7.33787 8.98967 7.87533 8.8561 8.43574 8.8561C8.99615 8.8561 9.53361 8.98967 9.92988 9.22743L22.5 16.7695L35.0701 9.22638C35.4664 8.98862 36.0038 8.85504 36.5643 8.85504C37.1247 8.85504 37.6621 8.98862 38.0584 9.22638C38.4547 9.46414 38.6773 9.78662 38.6773 10.1229C38.6773 10.4591 38.4547 10.7816 38.0584 11.0193L38.0549 11.0204Z" fill="white"/>
</svg>
