<?xml version="1.0" encoding="UTF-8"?>
<svg id="Layer_1" xmlns="http://www.w3.org/2000/svg" version="1.1" viewBox="0 0 27 25">
  <!-- Generator: Adobe Illustrator 29.7.1, SVG Export Plug-In . SVG Version: 2.1.1 Build 8)  -->
  <defs>
    <style>
      .st0 {
        fill: #fff;
      }
    </style>
  </defs>
  <path class="st0" d="M25.5,22.9H6.8c-.6,0-1-.4-1-1s.4-1,1-1h18.8c.6,0,1,.4,1,1s-.4,1-1,1Z"/>
  <g>
    <path class="st0" d="M8.9,13.9v3.8h3.8l10.8-10.8-3.8-3.8-10.8,10.8Z"/>
    <path class="st0" d="M12.7,18.7h-3.8c-.6,0-1-.4-1-1v-3.8c0-.3.1-.5.3-.7L18.9,2.4c.4-.4,1-.4,1.4,0l3.8,3.8c.4.4.4,1,0,1.4l-10.8,10.8c-.2.2-.4.3-.7.3ZM9.9,16.7h2.4l9.8-9.8-2.4-2.4-9.8,9.8v2.4Z"/>
  </g>
</svg>