<svg width="23" height="25" viewBox="0 0 23 25" fill="none" xmlns="http://www.w3.org/2000/svg">
<path d="M22.735 20.3124C22.735 20.8205 22.5585 21.2524 22.2054 21.6081L19.6331 24.1996C19.28 24.5553 18.8513 24.7331 18.3469 24.7331C17.8425 24.7331 17.4138 24.5553 17.0607 24.1996L11.4998 18.5975L5.93899 24.1996C5.58592 24.5553 5.15719 24.7331 4.65281 24.7331C4.14842 24.7331 3.71969 24.5553 3.36662 24.1996L0.794254 21.6081C0.441184 21.2524 0.264648 20.8205 0.264648 20.3124C0.264648 19.8043 0.441184 19.3724 0.794254 19.0167L6.35511 13.4145L0.794254 7.81241C0.441184 7.45672 0.264648 7.02481 0.264648 6.51668C0.264648 6.00855 0.441184 5.57664 0.794254 5.22095L3.36662 2.62948C3.71969 2.27379 4.14842 2.09595 4.65281 2.09595C5.15719 2.09595 5.58592 2.27379 5.93899 2.62948L11.4998 8.23162L17.0607 2.62948C17.4138 2.27379 17.8425 2.09595 18.3469 2.09595C18.8513 2.09595 19.28 2.27379 19.6331 2.62948L22.2054 5.22095C22.5585 5.57664 22.735 6.00855 22.735 6.51668C22.735 7.02481 22.5585 7.45672 22.2054 7.81241L16.6446 13.4145L22.2054 19.0167C22.5585 19.3724 22.735 19.8043 22.735 20.3124Z" fill="white"/>
</svg>
