<?xml version="1.0" encoding="UTF-8"?>
<svg id="Layer_1" xmlns="http://www.w3.org/2000/svg" version="1.1" viewBox="0 0 32 32">
  <!-- Generator: Adobe Illustrator 29.7.1, SVG Export Plug-In . SVG Version: 2.1.1 Build 8)  -->
  <defs>
    <style>
      .st0 {
        fill: #fff;
      }
    </style>
  </defs>
  <path class="st0" d="M21.3,29.2h-10.7c-1,0-2-.4-2.8-1.1s-1.1-1.7-1.1-2.8v-14.7h-1.4c-.7,0-1.2-.6-1.2-1.2s.6-1.2,1.2-1.2h3.2l2.3-4.6c.2-.4.6-.7,1.1-.7h8c.5,0,.9.3,1.1.7l2.3,4.6h3.2c.7,0,1.2.6,1.2,1.2s-.6,1.2-1.2,1.2h-1.4v14.7c0,1-.4,2-1.1,2.8s-1.7,1.1-2.8,1.1ZM9.2,10.6v14.7c0,.4.1.7.4,1s.6.4,1,.4h10.7c.4,0,.7-.2,1-.4s.4-.6.4-1v-14.7h-13.5ZM11.4,8.1h9.3l-1.4-2.8h-6.5l-1.4,2.8ZM18.7,23.9c-.7,0-1.2-.6-1.2-1.2v-8c0-.7.6-1.2,1.2-1.2s1.2.6,1.2,1.2v8c0,.7-.6,1.2-1.2,1.2ZM13.3,23.9c-.7,0-1.2-.6-1.2-1.2v-8c0-.7.6-1.2,1.2-1.2s1.2.6,1.2,1.2v8c0,.7-.6,1.2-1.2,1.2Z"/>
</svg>